<svg xmlns="http://www.w3.org/2000/svg" enable-background="new 0 0 32 32" viewBox="0 0 32 32" id="CodeForces"><path fill="#ffe6e2" d="M26,32H6c-3.314,0-6-2.686-6-6V6c0-3.314,2.686-6,6-6h20c3.314,0,6,2.686,6,6v20C32,29.314,29.314,32,26,32z" class="colore3f8fa svgShape"></path><path fill="#ffe6e2" d="M26,32H6c-3.314,0-6-2.686-6-6V6c0-3.314,2.686-6,6-6h20c3.314,0,6,2.686,6,6v20C32,29.314,29.314,32,26,32z" class="colore3f8fa svgShape"></path><g fill="#e96347" class="color000000 svgShape"><path fill="#da3f26" d="M24,21v-5c0-0.552-0.448-1-1-1h-2c-0.552,0-1,0.448-1,1v5c0,0.552,0.448,1,1,1h2C23.552,22,24,21.552,24,21z" class="color26c6da svgShape"></path><path fill="#eb998c" d="M17,22c0.552,0,1-0.448,1-1V11c0-0.552-0.448-1-1-1h-2c-0.551,0-1,0.448-1,1v10c0,0.552,0.449,1,1,1H17z" class="color8ce1eb svgShape"></path><path fill="#da3f26" d="M8,21c0,0.552,0.449,1,1,1h2c0.552,0,1-0.448,1-1v-7c0-0.552-0.448-1-1-1H9c-0.551,0-1,0.448-1,1V21z" class="color26c6da svgShape"></path></g></svg>