<svg xmlns="http://www.w3.org/2000/svg" enable-background="new 0 0 32 32" viewBox="0 0 32 32" id="github"><path fill="#ffe6e2" d="m26 32h-20c-3.314 0-6-2.686-6-6v-20c0-3.314 2.686-6 6-6h20c3.314 0 6 2.686 6 6v20c0 3.314-2.686 6-6 6z"></path><path fill="#ffe6e2" d="m26 32h-20c-3.314 0-6-2.686-6-6v-20c0-3.314 2.686-6 6-6h20c3.314 0 6 2.686 6 6v20c0 3.314-2.686 6-6 6z"></path><path fill="#fc573b" d="m22.667 8h-13.334c-.736 0-1.333.597-1.333 1.333v13.333c0 .737.597 1.334 1.333 1.334h13.333c.737 0 1.334-.597 1.334-1.333v-13.334c0-.736-.597-1.333-1.333-1.333zm-4.785 13.732c-.307.059-.412-.125-.412-.28 0-.192.007-.825.007-1.615 0-.552-.195-.914-.405-1.091 1.335-.145 2.738-.644 2.738-2.909 0-.644-.233-1.169-.615-1.582.06-.149.262-.748-.06-1.56 0 0-.502-.158-1.642.604-.48-.131-.99-.196-1.5-.199-.51.003-1.02.068-1.5.199-1.148-.763-1.65-.604-1.65-.604-.323.812-.12 1.412-.052 1.56-.385.413-.618.938-.618 1.582 0 2.259 1.401 2.766 2.733 2.914-.172.147-.326.407-.38.789-.343.151-1.212.411-1.747-.49 0 0-.316-.566-.919-.607 0 0-.585-.007-.042.358 0 0 .395.182.668.862 0 0 .352 1.147 2.021.791.003.491.008.862.008 1.002 0 .157-.11.339-.41.283-2.386-.778-4.105-2.987-4.105-5.593 0-3.256 2.685-5.896 6-5.896 3.314 0 6 2.64 6 5.896 0 2.602-1.717 4.813-4.118 5.586z"></path></svg>