<svg xmlns="http://www.w3.org/2000/svg" enable-background="new 0 0 32 32" viewBox="0 0 32 32" id="telegram"><path fill="#ffe6e2" d="m26 32h-20c-3.314 0-6-2.686-6-6v-20c0-3.314 2.686-6 6-6h20c3.314 0 6 2.686 6 6v20c0 3.314-2.686 6-6 6z"></path><path fill="#fc573b" d="m22.667 8h-13.334c-.736 0-1.333.597-1.333 1.333v13.333c0 .737.597 1.334 1.333 1.334h13.333c.737 0 1.334-.597 1.334-1.333v-13.334c0-.736-.597-1.333-1.333-1.333zm-6.667 14c-3.315 0-6-2.685-6-6s2.685-6 6-6 6 2.685 6 6-2.685 6-6 6z"></path><path fill="#fd907e" d="m18.53 13.639-5.785 2.231c-.396.155-.389.375-.068.476l1.481.462 3.435-2.163c.159-.106.307-.046.186.06l-2.779 2.512-.106 1.527c.155 0 .222-.068.302-.148l.724-.697 1.5 1.106c.274.155.469.075.542-.254l.985-4.641c.086-.405-.149-.568-.417-.471z"></path></svg>