<svg xmlns="http://www.w3.org/2000/svg" enable-background="new 0 0 32 32" viewBox="0 0 32 32" id="Vk"><path fill="#fbe7e3" d="m26 32h-20c-3.314 0-6-2.686-6-6v-20c0-3.314 2.686-6 6-6h20c3.314 0 6 2.686 6 6v20c0 3.314-2.686 6-6 6z" class="colorfff9dd svgShape"></path><path fill="#e96347" d="m22.667 8h-13.334c-.736 0-1.333.597-1.333 1.333v13.333c0 .737.597 1.334 1.333 1.334h13.333c.737 0 1.334-.597 1.334-1.333v-13.334c0-.736-.597-1.333-1.333-1.333zm-2.464 11.5c-.499 0-.646-.392-1.537-1.266-.78-.737-1.114-.833-1.308-.833-.419 0-.343.138-.343 1.599 0 .317-.102.501-.938.501-1.39 0-2.918-.829-4.003-2.358-1.628-2.241-2.074-3.936-2.074-4.277 0-.599.774-.269 1.762-.365.336 0 .463.144.593.501.642 1.837 1.724 3.443 2.17 3.443.386 0 .183-.484.243-2.391-.049-.875-.521-.947-.521-1.258 0-.142.125-.295.334-.295 1.996.12 2.433-.295 2.433.475.091 2.08-.377 3.704.822 2.526.945-1.036 1.613-2.636 1.613-2.636.082-.193.236-.365.57-.365.872.098 1.933-.273 1.709.475h-.001c-.165.75-1.767 2.964-1.769 2.966-.138.219-.194.328 0 .573.076.105 1.762 1.676 2.012 2.439.245.814-.92.463-1.767.546z" class="colorffd200 svgShape"></path></svg>