<svg xmlns="http://www.w3.org/2000/svg" enable-background="new 0 0 24 24" viewBox="0 0 24 24" id="vk"><path fill="#4b729f" d="m19.915 13.028c-.388-.49-.276-.708 0-1.146.005-.004 3.208-4.431 3.538-5.932l.002-.001c.164-.547 0-.949-.793-.949h-2.625c-.668 0-.976.345-1.141.731 0 0-1.336 3.198-3.226 5.271-.61.599-.892.792-1.225.792-.165 0-.42-.192-.42-.739v-5.106c.001-.656-.185-.949-.738-.949h-4.126c-.419 0-.668.306-.668.591 0 .622.944.765 1.042 2.515v3.797c0 .831-.15.985-.485.985-.892 0-3.057-3.211-4.34-6.886-.259-.712-.513-1.001-1.186-1.001h-2.624c-.749 0-.9.345-.9.73 0 .683.892 4.073 4.148 8.553 2.17 3.058 5.226 4.716 8.006 4.716 1.671 0 1.875-.368 1.875-1.002 0-2.922-.151-3.198.687-3.198.388 0 1.056.192 2.615 1.667 1.782 1.75 2.076 2.533 3.074 2.533h2.624c.748 0 1.128-.368.909-1.094-.499-1.527-3.871-4.668-4.023-4.878z"></path><path fill="#41638a" d="m12 5h-2.839c-.419 0-.668.306-.668.591 0 .622.944.765 1.042 2.515v3.797c0 .831-.15.985-.485.985-.892 0-3.057-3.211-4.34-6.886-.259-.712-.513-1.001-1.186-1.001h-2.624c-.749 0-.9.345-.9.73 0 .683.892 4.073 4.148 8.553 2.13 3.002 5.113 4.654 7.852 4.714z"></path></svg>